<?xml version="1.0" standalone="no"?>
<!DOCTYPE svg PUBLIC "-//W3C//DTD SVG 20010904//EN"
 "http://www.w3.org/TR/2001/REC-SVG-20010904/DTD/svg10.dtd">
<svg version="1.0" xmlns="http://www.w3.org/2000/svg"
 width="512.000000pt" height="512.000000pt" viewBox="0 0 512.000000 512.000000"
 preserveAspectRatio="xMidYMid meet">
<metadata>
Created by potrace 1.16, written by Peter Selinger 2001-2019
</metadata>
<g transform="translate(0.000000,512.000000) scale(0.100000,-0.100000)"
fill="#000000" stroke="none">
<path d="M2711 5094 c-36 -46 -28 -69 53 -148 81 -78 108 -122 126 -209 27
-134 -30 -267 -156 -364 -59 -45 -50 -108 22 -161 98 -73 158 -218 136 -334
-17 -91 -49 -146 -130 -226 -69 -67 -74 -74 -68 -105 8 -40 39 -67 80 -67 68
0 202 140 245 255 66 176 42 360 -65 506 -45 60 -45 61 -27 85 64 88 86 126
102 179 28 89 34 163 22 246 -34 224 -257 449 -340 343z"/>
<path d="M2143 4354 c-34 -34 -27 -89 14 -119 57 -40 107 -100 136 -163 25
-54 30 -76 30 -143 0 -72 -4 -87 -37 -154 -28 -56 -51 -86 -94 -122 -31 -26
-58 -48 -60 -49 -2 -1 -5 -17 -9 -37 -7 -47 29 -87 80 -87 76 0 216 156 258
288 42 132 23 310 -44 422 -60 101 -163 190 -219 190 -18 0 -39 -10 -55 -26z"/>
<path d="M3245 4355 c-33 -32 -33 -78 -1 -108 13 -12 45 -42 71 -67 27 -25 60
-70 74 -100 23 -48 26 -68 26 -155 0 -89 -3 -105 -28 -152 -26 -50 -68 -98
-135 -154 -77 -64 3 -174 91 -127 104 55 211 211 232 337 33 202 -40 396 -194
511 -63 47 -100 52 -136 15z"/>
<path d="M1175 3117 c-53 -30 -82 -76 -90 -142 -11 -81 1 -1083 13 -1130 5
-22 13 -56 16 -75 l6 -35 -74 3 c-94 5 -163 -10 -254 -55 -79 -39 -102 -62
-102 -106 0 -35 40 -77 74 -77 14 0 56 16 93 36 49 25 87 37 131 41 34 3 62 3
62 -1 0 -3 -61 -97 -135 -209 -143 -214 -154 -241 -117 -287 20 -24 82 -31
106 -11 7 6 68 94 136 196 129 194 145 207 134 110 -13 -113 -61 -230 -139
-333 -84 -112 -85 -112 -279 -112 l-166 0 -11 28 c-28 71 -5 231 47 334 32 64
32 110 -2 137 -56 44 -101 19 -150 -82 -49 -103 -68 -198 -61 -321 3 -60 11
-116 21 -138 9 -21 16 -40 16 -43 0 -3 -45 -5 -99 -5 -91 0 -102 -2 -128 -24
-27 -23 -28 -29 -31 -128 -4 -112 5 -149 40 -172 13 -8 264 -60 558 -116 294
-55 543 -103 553 -106 15 -5 17 -20 17 -128 0 -109 2 -125 20 -144 l21 -22
1134 0 c1122 0 1135 0 1155 20 18 18 20 33 20 144 0 110 2 125 18 130 9 3 233
46 497 95 655 124 622 116 640 151 18 34 21 201 5 247 -6 17 -22 35 -36 42
-35 16 -763 16 -798 0 -57 -26 -48 -116 14 -138 22 -7 140 -11 351 -11 312 0
319 0 319 -20 0 -11 -3 -20 -6 -20 -3 0 -243 -45 -532 -100 l-526 -100 -1120
0 -1120 0 -526 100 c-290 55 -530 100 -533 100 -4 0 -7 9 -7 20 0 20 7 20
1719 20 1166 0 1729 3 1747 10 15 6 33 18 40 28 21 27 17 76 -7 98 -19 17 -43
19 -267 24 l-247 5 70 50 c141 100 329 314 400 455 10 19 18 36 19 37 1 1 31
-7 66 -18 311 -97 675 20 868 277 129 171 181 362 160 579 -27 267 -189 502
-433 625 -120 61 -215 82 -367 83 l-128 1 0 30 c-1 48 -34 110 -76 142 l-37
29 -226 3 c-218 3 -227 2 -249 -18 -30 -28 -30 -79 1 -108 22 -21 32 -22 209
-22 103 0 193 -3 202 -6 12 -5 16 -21 16 -75 l0 -69 -1295 0 -1295 0 0 69 c0
54 4 70 16 75 9 3 451 6 983 6 l968 0 21 23 c29 31 29 80 0 107 -22 20 -29 20
-1017 20 l-996 0 -40 -23z m3153 -370 c197 -69 345 -218 409 -411 37 -113 39
-276 5 -386 -101 -324 -442 -522 -761 -441 -46 11 -86 22 -88 25 -3 2 45 165
52 174 1 1 24 -5 51 -13 72 -22 198 -19 269 5 85 29 136 62 194 126 86 94 121
183 121 309 0 134 -45 240 -142 332 -111 104 -240 142 -406 119 l-53 -8 3 93
3 94 30 7 c17 4 77 6 135 4 81 -3 122 -9 178 -29z m-501 -474 c-3 -343 -7
-420 -21 -483 -94 -403 -348 -723 -714 -903 l-87 -42 -450 -3 c-305 -2 -462 0
-487 8 l-38 11 18 37 c74 148 47 318 -67 426 -126 117 -309 163 -533 133 l-58
-7 -31 67 c-17 38 -41 102 -54 143 -55 172 -57 189 -62 618 l-5 402 1297 0
1296 0 -4 -407z m400 146 c207 -78 266 -338 111 -496 -77 -79 -204 -111 -303
-76 l-50 18 0 48 c1 26 2 148 3 272 l2 224 48 15 c67 21 123 19 189 -5z
m-2466 -1137 c50 -20 146 -89 136 -98 -2 -2 -107 -25 -233 -49 -126 -25 -239
-50 -251 -55 -55 -23 -65 -88 -21 -130 l22 -20 -78 0 c-43 0 -76 3 -74 8 2 4
24 50 50 102 27 55 53 126 62 168 8 41 16 75 18 77 17 14 104 23 198 21 90 -2
127 -7 171 -24z m96 -307 l-49 -45 -166 1 -167 1 205 43 c113 24 210 43 215
44 6 0 -12 -20 -38 -44z m1703 -760 l0 -65 -1025 0 -1025 0 0 65 0 65 1025 0
1025 0 0 -65z"/>
</g>
</svg>
